<?xml version="1.0" encoding="utf-8"?>
<!-- Generator: Adobe Illustrator 15.1.0, SVG Export Plug-In . SVG Version: 6.00 Build 0)  -->
<!DOCTYPE svg PUBLIC "-//W3C//DTD SVG 1.1 Tiny//EN" "http://www.w3.org/Graphics/SVG/1.1/DTD/svg11-tiny.dtd">
<svg version="1.1" baseProfile="tiny" id="Layer_1" xmlns="http://www.w3.org/2000/svg" xmlns:xlink="http://www.w3.org/1999/xlink"
	 x="0px" y="0px" width="240.533px" height="58.559px" viewBox="0 0 240.533 58.559" overflow="inherit" xml:space="preserve">
<g>
	<rect y="0" fill="#F5F5F5" width="58.559" height="11.713"/>
	<rect y="23.431" fill="#F5F5F5" width="39.035" height="11.709"/>
	<rect x="39.035" y="23.431" fill="#009AD6" width="19.523" height="11.709"/>
	<rect y="46.853" fill="#F5F5F5" width="58.559" height="11.706"/>
</g>
<g>
	<path fill="#F5F5F5" d="M74.107,24v0.87h-6.375v3.87h5.971v0.869h-5.971v4.229h6.45v0.87h-7.47V24H74.107z"/>
	<path fill="#F5F5F5" d="M82.792,24V24.9l-7.05,8.939h7.2v0.87h-8.34v-0.9l7.05-8.938h-6.57V24H82.792z"/>
	<path fill="#F5F5F5" d="M91.611,24v0.87h-6.375v3.87h5.971v0.869h-5.971v4.229h6.45v0.87h-7.47V24H91.611z"/>
	<path fill="#F5F5F5" d="M94.131,24v5.76l6.226-5.76h1.38l-4.785,4.425l5.01,6.285h-1.319l-4.455-5.58l-2.056,1.905v3.675h-1.02V24
		H94.131z"/>
	<path fill="#F5F5F5" d="M103.926,24v10.71h-1.02V24H103.926z"/>
	<path fill="#F5F5F5" d="M113.556,24v0.87h-6.375v3.87h5.971v0.869h-5.971v4.229h6.45v0.87h-7.47V24H113.556z"/>
	<path fill="#F5F5F5" d="M116.075,24v9.84h6v0.87h-7.02V24H116.075z"/>
	<path fill="#F5F5F5" d="M136.468,26.138c-0.205-0.325-0.455-0.598-0.75-0.817c-0.295-0.219-0.619-0.388-0.976-0.503
		c-0.354-0.114-0.728-0.173-1.117-0.173c-0.71,0-1.319,0.137-1.83,0.405c-0.51,0.271-0.928,0.628-1.252,1.072
		c-0.325,0.444-0.565,0.947-0.722,1.508c-0.154,0.561-0.231,1.135-0.231,1.725c0,0.58,0.077,1.153,0.231,1.719
		c0.156,0.564,0.396,1.069,0.722,1.516c0.324,0.444,0.742,0.802,1.252,1.072c0.511,0.27,1.12,0.404,1.83,0.404
		c0.5,0,0.95-0.091,1.351-0.271c0.399-0.18,0.744-0.425,1.034-0.735c0.29-0.31,0.525-0.672,0.705-1.087
		c0.181-0.415,0.295-0.862,0.345-1.343h1.021c-0.07,0.66-0.225,1.255-0.465,1.785c-0.24,0.529-0.551,0.979-0.932,1.35
		c-0.379,0.37-0.826,0.655-1.342,0.855c-0.516,0.199-1.088,0.3-1.718,0.3c-0.84,0-1.577-0.152-2.213-0.457
		c-0.636-0.306-1.162-0.713-1.582-1.223c-0.42-0.512-0.735-1.102-0.945-1.771s-0.313-1.375-0.313-2.115
		c0-0.738,0.104-1.443,0.313-2.113c0.21-0.671,0.525-1.264,0.945-1.777c0.42-0.517,0.946-0.925,1.582-1.23
		c0.636-0.305,1.373-0.457,2.213-0.457c0.51,0,1.008,0.074,1.492,0.226c0.485,0.149,0.925,0.373,1.319,0.667
		c0.396,0.296,0.726,0.658,0.99,1.088c0.266,0.43,0.434,0.925,0.502,1.485h-1.02C136.819,26.83,136.672,26.463,136.468,26.138z"/>
	<path fill="#F5F5F5" d="M139.385,27.24c0.21-0.671,0.524-1.264,0.944-1.777c0.421-0.517,0.947-0.925,1.583-1.23
		c0.635-0.305,1.372-0.457,2.213-0.457c0.84,0,1.574,0.152,2.204,0.457c0.631,0.307,1.154,0.716,1.574,1.23
		c0.421,0.515,0.736,1.106,0.945,1.777c0.211,0.67,0.315,1.375,0.315,2.113c0,0.74-0.104,1.445-0.315,2.115
		c-0.209,0.67-0.524,1.26-0.945,1.771c-0.42,0.51-0.943,0.917-1.574,1.223c-0.63,0.305-1.364,0.457-2.204,0.457
		c-0.841,0-1.578-0.152-2.213-0.457c-0.636-0.306-1.162-0.713-1.583-1.223c-0.42-0.512-0.734-1.102-0.944-1.771
		s-0.315-1.375-0.315-2.115C139.069,28.615,139.175,27.91,139.385,27.24z M140.321,31.072c0.154,0.565,0.396,1.07,0.721,1.517
		c0.325,0.444,0.742,0.802,1.253,1.072c0.511,0.27,1.119,0.404,1.83,0.404c0.71,0,1.317-0.136,1.822-0.404
		c0.505-0.271,0.92-0.628,1.245-1.072c0.324-0.445,0.563-0.95,0.72-1.517c0.155-0.563,0.231-1.138,0.231-1.718
		c0-0.59-0.076-1.164-0.231-1.725s-0.396-1.062-0.72-1.508c-0.325-0.444-0.74-0.803-1.245-1.072
		c-0.505-0.271-1.112-0.405-1.822-0.405c-0.711,0-1.319,0.136-1.83,0.405c-0.511,0.271-0.928,0.628-1.253,1.072
		s-0.564,0.947-0.721,1.508c-0.154,0.561-0.231,1.135-0.231,1.725C140.09,29.935,140.167,30.508,140.321,31.072z"/>
	<path fill="#F5F5F5" d="M155.66,24c0.438,0,0.856,0.055,1.252,0.165c0.396,0.109,0.739,0.276,1.034,0.502
		c0.296,0.226,0.531,0.516,0.705,0.87c0.176,0.354,0.264,0.771,0.264,1.253c0,0.68-0.176,1.27-0.525,1.77
		c-0.35,0.501-0.869,0.82-1.56,0.96v0.03c0.351,0.051,0.64,0.143,0.87,0.277c0.229,0.136,0.417,0.308,0.562,0.518
		c0.145,0.21,0.248,0.453,0.313,0.729c0.065,0.274,0.106,0.572,0.128,0.893c0.01,0.18,0.02,0.4,0.029,0.66
		c0.011,0.26,0.029,0.521,0.061,0.787c0.03,0.266,0.077,0.516,0.143,0.75c0.064,0.234,0.152,0.418,0.264,0.548h-1.125
		c-0.061-0.101-0.108-0.224-0.143-0.367c-0.035-0.146-0.062-0.295-0.076-0.45c-0.014-0.154-0.026-0.308-0.037-0.458
		c-0.01-0.148-0.021-0.278-0.029-0.39c-0.021-0.38-0.053-0.758-0.098-1.133s-0.142-0.71-0.285-1.005
		c-0.145-0.296-0.355-0.532-0.631-0.713c-0.274-0.181-0.651-0.261-1.133-0.239h-3.869v4.755h-1.021V24H155.66z M155.585,29.085
		c0.311,0,0.604-0.047,0.885-0.144c0.28-0.095,0.525-0.231,0.735-0.412s0.377-0.396,0.502-0.651
		c0.125-0.256,0.188-0.548,0.188-0.878c0-0.66-0.189-1.181-0.569-1.561c-0.382-0.381-0.96-0.569-1.74-0.569h-3.812v4.215H155.585z"
		/>
	<path fill="#F5F5F5" d="M168.185,24v0.87h-3.734v9.84h-1.02v-9.84h-3.721V24H168.185z"/>
	<path fill="#F5F5F5" d="M176.584,24v0.87h-6.375v3.87h5.972v0.869h-5.972v4.229h6.45v0.87h-7.471V24H176.584z"/>
	<path fill="#F5F5F5" d="M185.269,24V24.9l-7.05,8.939h7.2v0.87h-8.34v-0.9l7.05-8.938h-6.569V24H185.269z"/>
	<path fill="#F5F5F5" d="M197.494,24c0.448,0,0.882,0.043,1.297,0.128s0.78,0.229,1.097,0.435c0.313,0.205,0.566,0.476,0.756,0.811
		c0.19,0.336,0.285,0.753,0.285,1.253c0,0.28-0.045,0.553-0.135,0.816c-0.09,0.267-0.218,0.506-0.383,0.721
		c-0.165,0.216-0.359,0.396-0.585,0.548c-0.226,0.149-0.478,0.255-0.759,0.314v0.029c0.69,0.09,1.24,0.373,1.65,0.848
		c0.41,0.477,0.615,1.062,0.615,1.764c0,0.17-0.016,0.361-0.045,0.577c-0.03,0.216-0.09,0.436-0.182,0.659
		c-0.09,0.227-0.219,0.448-0.39,0.668c-0.17,0.221-0.397,0.412-0.683,0.577c-0.286,0.165-0.635,0.301-1.051,0.405
		c-0.414,0.104-0.912,0.157-1.491,0.157h-4.53V24H197.494z M197.494,28.695c0.409,0,0.765-0.048,1.063-0.143s0.551-0.226,0.75-0.391
		c0.2-0.165,0.352-0.357,0.45-0.577s0.15-0.455,0.15-0.705c0-1.34-0.806-2.01-2.415-2.01h-3.512v3.824L197.494,28.695
		L197.494,28.695z M197.494,33.84c0.38,0,0.739-0.032,1.08-0.098c0.34-0.064,0.64-0.183,0.899-0.354
		c0.26-0.17,0.465-0.396,0.614-0.683c0.149-0.284,0.226-0.643,0.226-1.072c0-0.689-0.242-1.207-0.729-1.553
		c-0.484-0.346-1.184-0.518-2.092-0.518h-3.512v4.274h3.513V33.84z"/>
	<path fill="#F5F5F5" d="M204.063,24v10.71h-1.021V24H204.063z"/>
	<path fill="#F5F5F5" d="M207.424,24l6.24,9.06h0.028V24h1.021v10.71h-1.14l-6.24-9.061h-0.03v9.061h-1.02V24H207.424z"/>
	<path fill="#F5F5F5" d="M217.953,24v10.71h-1.021V24H217.953z"/>
	<path fill="#F5F5F5" d="M219.935,27.24c0.209-0.671,0.523-1.264,0.943-1.777c0.421-0.517,0.948-0.925,1.583-1.23
		c0.636-0.305,1.372-0.457,2.213-0.457s1.574,0.152,2.204,0.457c0.631,0.307,1.155,0.716,1.575,1.23s0.735,1.106,0.944,1.777
		c0.211,0.67,0.315,1.375,0.315,2.113c0,0.74-0.104,1.445-0.315,2.115c-0.209,0.67-0.524,1.26-0.944,1.771
		c-0.42,0.51-0.944,0.917-1.575,1.223c-0.63,0.305-1.363,0.457-2.204,0.457s-1.577-0.152-2.213-0.457
		c-0.635-0.306-1.162-0.713-1.583-1.223c-0.42-0.512-0.734-1.102-0.943-1.771c-0.211-0.67-0.315-1.375-0.315-2.115
		C219.618,28.615,219.724,27.91,219.935,27.24z M220.871,31.072c0.153,0.565,0.396,1.07,0.72,1.517
		c0.325,0.444,0.742,0.802,1.254,1.072c0.51,0.27,1.118,0.404,1.829,0.404c0.71,0,1.317-0.136,1.822-0.404
		c0.505-0.271,0.92-0.628,1.245-1.072c0.324-0.445,0.564-0.95,0.72-1.517c0.155-0.563,0.231-1.138,0.231-1.718
		c0-0.59-0.076-1.164-0.231-1.725s-0.396-1.062-0.72-1.508c-0.325-0.444-0.74-0.803-1.245-1.072
		c-0.505-0.271-1.112-0.405-1.822-0.405c-0.711,0-1.319,0.136-1.829,0.405c-0.512,0.271-0.929,0.628-1.254,1.072
		c-0.324,0.444-0.564,0.947-0.72,1.508s-0.231,1.135-0.231,1.725C220.64,29.935,220.716,30.508,220.871,31.072z"/>
	<path fill="#F5F5F5" d="M232.429,24l6.24,9.06h0.029V24h1.021v10.71h-1.141l-6.24-9.061h-0.029v9.061h-1.021V24H232.429z"/>
</g>
</svg>
